<svg id="Capa_1" enable-background="new 0 0 510 510" height="512" viewBox="0 0 510 510" width="512" xmlns="http://www.w3.org/2000/svg"><g><path d="m495 30v-30h-98.826l-75 135h-97.25c-7.301-50.816-51.12-90-103.924-90-57.897 0-105 47.103-105 105s47.103 105 105 105c18.992 0 37.549-5.185 53.694-14.789l96.306 154.091v85.698h-60v30h150v-30h-60v-85.698l162.063-259.302h-106.571l58.334-105zm-375 195c-41.355 0-75-33.645-75-75s33.645-75 75-75c36.219 0 66.522 25.808 73.491 60h-85.554l49.86 79.776c-11.397 6.648-24.448 10.224-37.797 10.224zm79.564 0h170.872l-85.436 136.698zm189.622-30h-208.372l-18.75-30h245.872z"/><path d="m270 75h30v30h-30z"/><path d="m225 15h30v30h-30z"/></g></svg>