<?xml version="1.0"?>
<svg xmlns="http://www.w3.org/2000/svg" width="512" height="512" viewBox="0 0 128 128"><g><path d="M56.279,16.019V9.235a1.75,1.75,0,0,0-1.75-1.75H29.511a1.75,1.75,0,0,0-1.75,1.75v6.784a5.5,5.5,0,0,0,5.491,5.49H50.788A5.5,5.5,0,0,0,56.279,16.019Zm-25.018,0V10.985H52.779v5.034a1.993,1.993,0,0,1-1.991,1.99H33.252A1.993,1.993,0,0,1,31.261,16.019Z"/><path d="M65.051,74.219H48.329V28.991h2.459A12.988,12.988,0,0,0,63.762,16.019V1.753A1.751,1.751,0,0,0,62.012,0H22.029a1.75,1.75,0,0,0-1.75,1.75V16.019A12.987,12.987,0,0,0,33.252,28.991h2.459V74.219H18.989a1.75,1.75,0,0,0-1.75,1.75V92.027a38.536,38.536,0,0,0,24.122,35.841,1.75,1.75,0,0,0,1.319,0A38.535,38.535,0,0,0,66.8,92.027V75.969A1.75,1.75,0,0,0,65.051,74.219Zm-41.272-58.2V3.5H60.262V16.019a9.484,9.484,0,0,1-9.474,9.472H33.252A9.483,9.483,0,0,1,23.779,16.019Zm21.05,12.972V84.508a2.809,2.809,0,0,1-5.618,0V28.991ZM63.3,92.027A35.047,35.047,0,0,1,42.02,124.351,35.047,35.047,0,0,1,20.739,92.027V77.719H35.711v6.967a6.133,6.133,0,0,0,6.127,6.127H42.2a6.133,6.133,0,0,0,6.127-6.127V77.719H63.3Z"/><path d="M42.9,114.343a25.719,25.719,0,0,1-9.682-9.953,1.749,1.749,0,1,0-3.074,1.671,29.212,29.212,0,0,0,11,11.308,1.75,1.75,0,0,0,1.757-3.026Z"/><path d="M98.933,101.609H96.9V44.474l3.123-1.614A18.739,18.739,0,0,0,110.2,26.15V4.585A4.554,4.554,0,0,0,106.188.023a4.441,4.441,0,0,0-4.856,4.105L100.55,20.48a2.192,2.192,0,0,1-4.382-.071L95.913,4.316A4.419,4.419,0,0,0,91.474,0h-.83a4.425,4.425,0,0,0-4.439,4.335L85.95,20.409a2.192,2.192,0,0,1-4.381.07L80.792,4.172a4.441,4.441,0,0,0-7.315-3.108,4.433,4.433,0,0,0-1.56,3.38V26.15A18.74,18.74,0,0,0,82.093,42.86l3.122,1.614v57.135h-2.03a11.841,11.841,0,0,0-11.827,11.828v12.81a1.751,1.751,0,0,0,1.75,1.75h35.9a1.751,1.751,0,0,0,1.75-1.75v-12.81A11.841,11.841,0,0,0,98.933,101.609ZM83.7,39.751a15.255,15.255,0,0,1-8.283-13.6V4.444a.944.944,0,0,1,.331-.717.931.931,0,0,1,.778-.21,1.012,1.012,0,0,1,.775.89l.772,16.238a5.692,5.692,0,0,0,11.377-.18L89.7,4.417a.936.936,0,0,1,.94-.914h.83a.932.932,0,0,1,.94.891l.254,16.071a5.693,5.693,0,0,0,11.378.181l.777-16.284a.941.941,0,0,1,1.034-.854,1.045,1.045,0,0,1,.844,1.077V26.15a15.254,15.254,0,0,1-8.282,13.6l-1.516.783V33.676A5.686,5.686,0,0,0,91.223,28H90.9a5.686,5.686,0,0,0-5.68,5.68v6.858Zm5.015,3.657V33.676A2.183,2.183,0,0,1,90.9,31.5h.328a2.183,2.183,0,0,1,2.18,2.18v67.933H88.715ZM107.261,124.5h-32.4v-11.06a8.337,8.337,0,0,1,8.327-8.328H98.933a8.338,8.338,0,0,1,8.328,8.328Z"/><path d="M98.933,108.328H83.185a5.115,5.115,0,0,0-5.109,5.109v6.091a1.749,1.749,0,0,0,1.75,1.75h22.466a1.749,1.749,0,0,0,1.75-1.75v-6.091A5.115,5.115,0,0,0,98.933,108.328Zm1.609,9.45H81.576v-4.341a1.611,1.611,0,0,1,1.609-1.609H98.933a1.611,1.611,0,0,1,1.609,1.609Z"/></g></svg>
