<svg id="Capa_1" enable-background="new 0 0 512 512" height="512" viewBox="0 0 512 512" width="512" xmlns="http://www.w3.org/2000/svg"><g><circle cx="143.864" cy="465.766" r="7.5"/><circle cx="361.64" cy="465.766" r="7.5"/><path d="m221.107 72.535c-2.559-40.674-36.489-72.535-77.243-72.535-40.755 0-74.685 31.861-77.244 72.535l-12.213 194.056c-.36 5.729 1.687 11.415 5.616 15.6 3.93 4.185 9.477 6.585 15.217 6.585h46.167v39.03c-8.904.147-16.105 7.424-16.105 16.362v48.287c0 4.142 3.357 7.5 7.5 7.5 4.142 0 7.5-3.358 7.5-7.5v-48.287c0-.759.617-1.376 1.376-1.376h44.372c.759 0 1.377.617 1.377 1.376v129.27c0 12.992-10.57 23.563-23.563 23.563-12.992 0-23.562-10.57-23.562-23.563v-50.983c0-4.142-3.358-7.5-7.5-7.5-4.143 0-7.5 3.358-7.5 7.5v50.983c0 21.264 17.299 38.563 38.562 38.563 21.264 0 38.563-17.299 38.563-38.563v-129.27c0-8.939-7.202-16.216-16.106-16.362v-39.03h46.167c5.74 0 11.287-2.4 15.217-6.585 3.93-4.184 5.977-9.871 5.616-15.6zm-69.787 255.256h-14.913v-74.73c0-15.62 2.507-30.985 7.457-45.747 4.949 14.763 7.456 30.129 7.456 45.747zm65.449-55.869c-1.122 1.195-2.643 1.853-4.282 1.853h-46.167v-20.713c0-19.084-3.389-37.825-10.073-55.702-1.951-5.219-6.813-8.591-12.385-8.59-5.571.001-10.432 3.373-12.381 8.59-6.685 17.876-10.074 36.617-10.074 55.702v20.713h-46.167c-1.64 0-3.16-.658-4.282-1.853s-1.683-2.753-1.58-4.389l12.213-194.056c2.063-32.791 29.417-58.477 62.273-58.477 32.855 0 60.209 25.686 62.272 58.477l12.213 194.055c.104 1.636-.458 3.195-1.58 4.39z"/><path d="m444.045 11.685c-2.287-3.985-6.394-6.397-10.985-6.453-.055-.001-.108-.001-.162-.001-4.526 0-8.619 2.303-10.974 6.184-14.034 23.142-14.041 31.461-14.043 34.2v102.925c0 5.89-4.792 10.682-10.682 10.682-5.891 0-10.683-4.792-10.683-10.682v-102.925c0-.06-.001-.12-.002-.179-.187-7.791-4.843-19.139-13.841-33.731-2.357-3.825-6.434-6.1-10.922-6.1-.032 0-.065 0-.099 0-4.53.034-8.621 2.378-10.943 6.272-13.946 23.393-13.946 30.873-13.946 33.331v103.332c0 5.89-4.792 10.682-10.683 10.682s-10.683-4.792-10.683-10.682v-102.753c.13-2.921.208-11.404-14.045-33.992-2.405-3.811-6.571-6.048-11.032-5.992-4.502.059-8.566 2.405-10.872 6.278-13.804 23.195-13.804 30.671-13.804 33.128v62.997c0 4.142 3.357 7.5 7.5 7.5s7.5-3.358 7.5-7.5v-62.998c0-2.009 2.138-8.907 9.895-22.383 7.438 12.27 9.994 19.709 9.866 22.44-.005.117-.008.233-.008.349v102.926c0 14.161 11.522 25.682 25.683 25.682s25.683-11.521 25.683-25.682v-103.332c0-2.009 2.162-8.94 10.007-22.541 6.005 10.182 9.602 18.652 9.746 23.051v102.822c0 14.161 11.522 25.682 25.683 25.682s25.682-11.521 25.682-25.682v-102.919c.002-3.068 2.667-10.719 9.975-23.246 9.488 17.068 9.777 22.27 9.777 22.834v131.259c0 24.16-14.294 46.049-36.415 55.763l-20.09 8.823c-.795.349-1.602.678-2.414.994-1.053-15.277-4.299-30.264-9.692-44.688-1.95-5.219-6.81-8.591-12.382-8.591-.001 0-.001 0-.002 0-5.57 0-10.432 3.372-12.384 8.59-5.393 14.423-8.638 29.409-9.691 44.685-.812-.316-1.619-.642-2.413-.991l-20.091-8.823c-22.121-9.714-36.415-31.603-36.415-55.763v-38.262c0-4.142-3.357-7.5-7.5-7.5s-7.5 3.358-7.5 7.5v38.262c0 30.111 17.815 57.39 45.384 69.497l20.09 8.822c2.62 1.151 5.329 2.152 8.064 3v70.018c-8.904.147-16.105 7.424-16.105 16.362v129.27c0 21.264 17.299 38.563 38.563 38.563s38.563-17.299 38.563-38.563v-129.27c0-8.939-7.202-16.216-16.105-16.362v-70.014c2.741-.85 5.443-1.852 8.064-3.003l20.09-8.823c27.569-12.107 45.384-39.387 45.384-69.497v-131.259c-.002-2.434-.002-9.842-13.591-33.523zm-82.406 195.628c4.95 14.763 7.457 30.127 7.457 45.748v74.73h-14.914v-74.73c0-15.62 2.507-30.984 7.457-45.748zm23.563 136.854v129.27c0 12.992-10.57 23.563-23.563 23.563-12.992 0-23.563-10.57-23.563-23.563v-129.27c0-.759.618-1.376 1.377-1.376h44.372c.76 0 1.377.618 1.377 1.376z"/></g></svg>