<svg id="Layer_1" enable-background="new 0 0 512 512" height="512" viewBox="0 0 512 512" width="512" xmlns="http://www.w3.org/2000/svg"><g><path d="m489.146 326.198c-6.219-8.665-13.314-15.741-21.028-21.087.131-.556.208-1.133.208-1.729 0-23.123-12.165-41.829-28.747-45.984v-63.331c0-82.557-67.324-149.722-150.077-149.722h-66.722v-15.186c0-16.078-13.08-29.159-29.159-29.159h-46.68c-16.079 0-29.159 13.081-29.159 29.159v64.567c-14.626 1.554-26.058 13.962-26.058 28.992v20.552l-22.114 18.432c-7.209 6.009 2.064 17.804 9.604 11.523l22.693-18.913h136.75l49.5 41.255c35.078 29.234 46.974 77.211 29.598 119.387l-59.722 145.271h-175.503l-59.723-145.277c-16.618-40.334-6.062-87.144 26.267-116.479 6.95-6.308-2.815-17.706-10.08-11.108-36.996 33.57-49.075 87.14-30.058 133.296l57.376 139.568c-33.547.274-34.541 51.775-.713 51.775h209.366c33.683 0 32.936-51.498-.714-51.774l57.375-139.563c9.71-23.568 11.602-49.102 5.469-73.839-6.132-24.735-19.733-46.443-39.334-62.779l-48.922-40.773v-20.552c0-15.03-11.432-27.439-26.058-28.992v-34.382h66.722c74.481 0 135.077 60.436 135.077 134.722v63.607c-16.067 4.644-27.745 23.053-27.745 45.707 0 .074.009.145.011.219-8.597 5.495-16.48 13.087-23.307 22.598-14.72 20.508-22.826 47.646-22.826 76.417s8.106 55.909 22.826 76.417c15.26 21.26 35.788 32.968 57.804 32.968 7.881 0 15.675-1.53 23.164-4.55 8.705-3.509 3.495-17.58-5.607-13.912-5.7 2.296-11.608 3.461-17.558 3.461-36.188 0-65.63-42.341-65.63-94.385s29.441-94.385 65.63-94.385 65.63 42.341 65.63 94.385c0 26.09-7.316 50.407-20.602 68.472-5.56 7.561 6.272 16.794 12.084 8.887 15.166-20.621 23.518-48.095 23.518-77.358 0-28.771-8.106-55.91-22.826-76.418zm-203.295 159.914c0 6.004-4.884 10.888-10.887 10.888h-209.365c-14.04 0-14.041-21.774 0-21.774h209.366c6.002 0 10.886 4.883 10.886 10.886zm-138.91-471.112h46.68c7.808 0 14.159 6.352 14.159 14.159v64.4h-74.998v-10.862c.837.081 1.678.136 2.523.136 14.612 0 26.5-11.888 26.5-26.5s-11.888-26.5-26.5-26.5c-.846 0-1.686.056-2.523.136v-.81c0-7.807 6.352-14.159 14.159-14.159zm-14.159 30.118c.826-.188 1.672-.285 2.523-.285 6.341 0 11.5 5.159 11.5 11.5s-5.159 11.5-11.5 11.5c-.852 0-1.698-.097-2.523-.285zm101.056 77.601v16.594h-127.113v-16.594c0-7.808 6.352-14.159 14.159-14.159h98.795c7.807 0 14.159 6.351 14.159 14.159zm178.555 173.505c2.181-13.954 10.539-24.695 20.187-24.695 9.856 0 18.37 11.205 20.324 25.598-6.924-2.567-14.158-3.897-21.563-3.897-6.477 0-12.824 1.022-18.948 2.994z"/><path d="m431.554 474.066c9.652 0 9.668-15 0-15-9.652 0-9.668 15 0 15z"/><path d="m431.554 421.568c-9.652 0-9.668 15 0 15 9.651 0 9.668-15 0-15z"/><path d="m459.552 438.567c-9.652 0-9.668 15 0 15 9.652 0 9.668-15 0-15z"/></g></svg>