<?xml version="1.0" encoding="iso-8859-1"?>
<!-- Generator: Adobe Illustrator 19.0.0, SVG Export Plug-In . SVG Version: 6.00 Build 0)  -->
<svg version="1.1" id="Capa_1" xmlns="http://www.w3.org/2000/svg" xmlns:xlink="http://www.w3.org/1999/xlink" x="0px" y="0px"
	 viewBox="0 0 360.669 360.669" style="enable-background:new 0 0 360.669 360.669;" xml:space="preserve">
<g>
	<g>
		<path d="M130.669,122.078c-10.825,0-19.6,8.775-19.6,19.6c0.022,10.816,8.784,19.578,19.6,19.6c10.825,0,19.6-8.775,19.6-19.6
			C150.269,130.853,141.494,122.078,130.669,122.078z M130.669,152.358c-5.898,0-10.68-4.782-10.68-10.68s4.782-10.68,10.68-10.68
			c5.898,0,10.68,4.782,10.68,10.68C141.349,147.576,136.568,152.358,130.669,152.358z"/>
	</g>
</g>
<g>
	<g>
		<path d="M230.029,122.078c-10.825,0-19.6,8.775-19.6,19.6c0.022,10.816,8.784,19.578,19.6,19.6c10.825,0,19.6-8.775,19.6-19.6
			C249.629,130.853,240.854,122.078,230.029,122.078z M230.029,152.358c-5.898,0-10.68-4.782-10.68-10.68s4.782-10.68,10.68-10.68
			c5.898,0,10.68,4.782,10.68,10.68C240.709,147.576,235.928,152.358,230.029,152.358z"/>
	</g>
</g>
<g>
	<g>
		<path d="M180.349,184.238c-43.44,0-78.76,30.2-78.76,67.2s35.32,67.08,78.76,67.08s78.76-30.28,78.76-67.08
			C259.109,214.638,223.789,184.238,180.349,184.238z M180.349,196.478v-0.24c13.32,0,24,8.8,24,19.64s-10.84,19.64-24,19.64
			c-13.16,0-24-8.8-24-19.64S167.029,196.478,180.349,196.478z M180.349,309.558v-0.2c-38.52,0-69.84-26.08-69.84-58.16
			c0-24.88,18.88-46.08,45.28-54.36c-5.409,5-8.484,12.033-8.48,19.4c0,15.76,14.84,28.56,33.04,28.56s33.04-12.8,33.04-28.56
			c-0.106-7.247-3.187-14.132-8.52-19.04c26.4,8.28,45.28,29.52,45.28,54.36C250.189,283.478,218.869,309.558,180.349,309.558z"/>
	</g>
</g>
<g>
	<g>
		<path d="M315.669,43.678c-9.588-7.577-23.503-5.948-31.08,3.64c-2.123,2.852-2.463,6.656-0.88,9.84
			c5.453,10.282,14.974,17.8,26.24,20.72c0.679,0.049,1.361,0.049,2.04,0c2.793,0.16,5.501-0.994,7.32-3.12
			C326.887,65.17,325.257,51.255,315.669,43.678z M312.349,69.078c-1.28,0.36-6.08-1-12.2-5.8c-6.12-4.8-8.68-9.44-8.6-10.44
			c4.651-5.614,12.972-6.395,18.586-1.744C315.521,55.555,316.492,63.443,312.349,69.078z"/>
	</g>
</g>
<g>
	<g>
		<path d="M76.029,47.478c-7.538-9.642-21.464-11.348-31.106-3.811c-0.005,0.004-0.009,0.007-0.014,0.011
			C35.322,51.25,33.689,65.16,41.26,74.747c0.003,0.004,0.006,0.007,0.009,0.011c1.796,2.197,4.526,3.414,7.36,3.28
			c0.679,0.049,1.361,0.049,2.04,0c11.266-2.92,20.787-10.438,26.24-20.72C78.483,54.132,78.144,50.334,76.029,47.478z
			 M60.349,63.278c-6.08,4.96-10.88,6.16-12,5.8c-4.436-5.813-3.32-14.121,2.493-18.557c5.649-4.311,13.693-3.394,18.227,2.077
			C69.069,53.838,66.709,58.318,60.349,63.278z"/>
	</g>
</g>
<g>
	<g>
		<path d="M360.669,61.038c-0.004-31.701-25.707-57.396-57.408-57.392c-23.981,0.003-45.433,14.915-53.792,37.392
			c-43.829-20.37-94.411-20.37-138.24,0c-11.03-29.72-44.065-44.872-73.785-33.842C7.724,18.226-7.428,51.26,3.602,80.981
			c5.395,14.537,16.442,26.273,30.627,32.537c-43.037,80.7-12.505,181.008,68.195,224.045
			c80.7,43.037,181.008,12.505,224.045-68.195c25.973-48.704,25.973-107.146,0-155.85
			C347.258,104.343,360.671,83.761,360.669,61.038z M337.029,191.278c-0.023,86.532-70.189,156.661-156.721,156.639
			S23.646,277.727,23.669,191.195c0.007-27.277,7.136-54.08,20.68-77.757c1.218-2.154,0.458-4.887-1.695-6.105
			c-0.237-0.134-0.487-0.247-0.745-0.335C16.578,98.323,3.076,70.757,11.75,45.426S47.991,6.593,73.322,15.267
			c15.154,5.19,26.767,17.529,31.027,32.971c0.625,2.371,3.053,3.787,5.424,3.163c0.296-0.078,0.582-0.186,0.856-0.323
			c43.924-22.097,95.716-22.097,139.64,0c2.239,0.999,4.865-0.006,5.864-2.245c0.086-0.193,0.158-0.392,0.216-0.595
			c7.097-25.817,33.779-40.993,59.596-33.896c25.817,7.097,40.993,33.779,33.896,59.596c-4.263,15.509-15.941,27.894-31.172,33.061
			c-2.319,0.861-3.501,3.44-2.64,5.759c0.087,0.235,0.195,0.463,0.32,0.681C329.914,137.136,337.044,163.971,337.029,191.278z"/>
	</g>
</g>
<g>
</g>
<g>
</g>
<g>
</g>
<g>
</g>
<g>
</g>
<g>
</g>
<g>
</g>
<g>
</g>
<g>
</g>
<g>
</g>
<g>
</g>
<g>
</g>
<g>
</g>
<g>
</g>
<g>
</g>
</svg>
