<svg id="Capa_1" enable-background="new 0 0 512.014 512.014" height="512" viewBox="0 0 512.014 512.014" width="512" xmlns="http://www.w3.org/2000/svg"><g><path d="m511.254 167.057c4.417-48.585-10.518-92.709-42.053-124.244-31.536-31.535-75.664-46.47-124.244-42.053-47.561 4.324-93.841 26.792-130.314 63.266-36.474 36.474-58.941 82.754-63.266 130.314-1.331 14.644-.892 28.879 1.217 42.49l-33.413 94.431c-1.929 5.45-.554 11.522 3.534 15.61l42.427 42.426c2.861 2.862 6.696 4.394 10.608 4.394 1.677 0 3.367-.281 5.001-.859l94.424-33.409c8.417 1.305 17.071 1.974 25.916 1.974 5.46 0 10.992-.252 16.582-.76 47.561-4.324 93.841-26.792 130.314-63.266 36.475-36.473 58.943-82.754 63.267-130.314zm-32.11 12.978-9.943-9.943 12.636-12.636c-.34 7.468-1.234 15.017-2.693 22.579zm-.908-61.404-30.248 30.248-31.82-31.82 41.703-41.703c9.78 12.854 16.542 27.542 20.365 43.275zm-51.461 51.461-42.427 42.427-31.82-31.82 42.427-42.427zm-33.389-136.317c15.734 3.824 30.427 10.58 43.28 20.361l-41.711 41.711-31.82-31.82zm-19.644 83.284-42.427 42.427-31.82-31.82 42.427-42.427zm-137.886 74.247 42.427-42.427 31.82 31.82-42.427 42.427zm10.607 53.033-41.703 41.703c-9.781-12.853-16.542-27.541-20.366-43.274l30.248-30.248zm108.091-214.158-12.632 12.633-9.937-9.937c7.559-1.458 15.104-2.356 22.569-2.696zm-55.215 12.475 21.37 21.37-42.427 42.427-31.424-31.424c16.282-14.036 34.117-24.86 52.481-32.373zm-73.691 53.589 31.422 31.421-42.427 42.427-21.376-21.376c7.512-18.362 18.347-36.192 32.381-52.472zm-42.161 85.118 9.943 9.943-12.636 12.636c.34-7.469 1.234-15.017 2.693-22.579zm-3.822 180.032-29.046-29.046 17.212-48.646c6.68 12.792 15.236 24.52 25.598 34.882 10.36 10.36 22.08 18.923 34.868 25.602zm89.583-33.775c-15.734-3.823-30.422-10.585-43.275-20.366l41.703-41.703 31.82 31.82zm19.641-83.281 42.427-42.427 31.82 31.82-42.427 42.427zm19.184 86.881 12.636-12.636 9.943 9.943c-7.562 1.459-15.11 2.354-22.579 2.693zm55.225-12.473-21.376-21.376 42.427-42.427 31.422 31.421c-16.281 14.035-34.111 24.87-52.473 32.382zm42.264-85.015 42.427-42.427 21.376 21.376c-7.513 18.362-18.347 36.192-32.381 52.472z"/><circle cx="457" cy="457.014" r="55"/><path d="m5.858 463.73c-7.811 7.81-7.811 20.474 0 28.284l14.142 14.142c7.811 7.811 20.474 7.811 28.284 0l53.219-53.219-42.426-42.426z"/><path d="m97.11 369.905h30v60h-30z" transform="matrix(.707 -.707 .707 .707 -249.94 196.404)"/></g></svg>