<svg id="Capa_1" enable-background="new 0 0 512.003 512.003" height="512" viewBox="0 0 512.003 512.003" width="512" xmlns="http://www.w3.org/2000/svg"><path d="m10 250.002h86v252c0 5.523 4.478 10 10 10h105c5.522 0 10-4.477 10-10s-4.478-10-10-10h-95v-362c0-5.523-4.478-10-10-10s-10 4.477-10 10v100h-74.304c24.867-159.453 22.814-185.502 68.615-194.665l72.402-14.48 86.216 86.216c3.906 3.905 10.236 3.905 14.143 0l86.216-86.216 72.402 14.48c45.947 9.188 43.759 35.338 68.616 194.665h-74.306v-100c0-5.523-4.478-10-10-10s-10 4.477-10 10v362h-95c-5.522 0-10 4.477-10 10s4.478 10 10 10h105c5.522 0 10-4.477 10-10v-252h86c6.142 0 10.839-5.496 9.877-11.565-15.413-97.273-20.5-149.005-33.195-180.176-10.053-24.685-25.428-37.008-53.07-42.535l-77.65-15.53c-3.278-.658-6.668.37-9.032 2.734l-82.93 82.93-82.928-82.93c-2.364-2.363-5.749-3.39-9.032-2.734l-77.651 15.53c-27.639 5.529-43.01 17.849-53.056 42.524-12.671 31.128-17.775 82.766-33.21 180.187-.458 2.89.373 5.834 2.272 8.059 1.901 2.225 4.679 3.506 7.605 3.506z"/><path d="m346 200.002c5.522 0 10-4.477 10-10s-4.478-10-10-10h-30c-5.522 0-10 4.477-10 10s4.478 10 10 10z"/><circle cx="256" cy="502.002" r="10"/></svg>